# xmcd
#
# Track frame offsets: 
#        150
#        16349
#        34655
#        57503
#        77010
#        102118
#        114132
#        133498
#        144335
#        168981
#
# Disc length: 2498 seconds
#
# Revision: 0
# Processed by: cddbd v1.5.2PL0 Copyright (c) Steve Scherf et al.
# Submitted via: ExactAudioCopy v0.99pb4
#
DISCID=7c09c00a
DTITLE=Alexander Demin - V Predlozhenykh Usloviyakh
DYEAR=2008
DGENRE=Blues
TTITLE0=Mezhdu
TTITLE1=Peredvigaya Veschi
TTITLE2=Ni Odnogo Khoroshego Sna (Za poslednie 20 Let)
TTITLE3=Prifrontovoi Vorobei
TTITLE4=Raskhodimsya Po Odnomu
TTITLE5=Na Grani Provala
TTITLE6=Zato Budet Chto Rasskazat'
TTITLE7=Alenushka
TTITLE8=V Predlozennykh Usloviyakh
TTITLE9=Pered Tem...
EXTD=
EXTT0=
EXTT1=
EXTT2=
EXTT3=
EXTT4=
EXTT5=
EXTT6=
EXTT7=
EXTT8=
EXTT9=
PLAYORDER=
